<?xml version="1.0" standalone="no"?>
<!DOCTYPE svg PUBLIC "-//W3C//DTD SVG 20010904//EN"
 "http://www.w3.org/TR/2001/REC-SVG-20010904/DTD/svg10.dtd">
<svg version="1.0" xmlns="http://www.w3.org/2000/svg"
 width="1280.000000pt" height="1280.000000pt" viewBox="0 0 1280.000000 1280.000000"
 preserveAspectRatio="xMidYMid meet">
<metadata>
Created by potrace 1.15, written by Peter Selinger 2001-2017
</metadata>
<g transform="translate(0.000000,1280.000000) scale(0.100000,-0.100000)"
fill="#000000" stroke="none">
<path d="M6085 12794 c-639 -38 -1200 -146 -1766 -340 -2197 -754 -3823 -2657
-4223 -4944 -69 -394 -91 -659 -91 -1110 0 -380 7 -501 46 -810 153 -1214 648
-2347 1439 -3295 746 -893 1732 -1573 2829 -1949 503 -173 982 -273 1566 -328
187 -17 843 -17 1030 0 789 74 1455 246 2120 548 2029 920 3437 2826 3714
5024 39 309 46 430 46 810 0 380 -7 501 -46 810 -153 1214 -648 2347 -1439
3295 -746 893 -1732 1572 -2829 1949 -491 169 -958 268 -1511 322 -145 14
-746 26 -885 18z"/>
</g>
</svg>
